<?xml version="1.0" encoding="UTF-8"?>
<svg xmlns="http://www.w3.org/2000/svg" xmlns:xlink="http://www.w3.org/1999/xlink" width="16px" height="16px" viewBox="0 0 16 16" version="1.1">
<defs>
<filter id="alpha" filterUnits="objectBoundingBox" x="0%" y="0%" width="100%" height="100%">
  <feColorMatrix type="matrix" in="SourceGraphic" values="0 0 0 0 1 0 0 0 0 1 0 0 0 0 1 0 0 0 1 0"/>
</filter>
<mask id="mask0">
  <g filter="url(#alpha)">
<rect x="0" y="0" width="16" height="16" style="fill:rgb(0%,0%,0%);fill-opacity:0.996078;stroke:none;"/>
  </g>
</mask>
<clipPath id="clip1">
  <rect x="0" y="0" width="16" height="16"/>
</clipPath>
<g id="surface5" clip-path="url(#clip1)">
<path style=" stroke:none;fill-rule:evenodd;fill:rgb(29.803922%,29.803922%,29.803922%);fill-opacity:1;" d="M 15.984375 3.671875 C 15.984375 5.109375 15.984375 6.546875 15.984375 7.984375 C 13.308594 7.984375 10.628906 7.984375 7.953125 7.984375 C 5.449219 6.320312 2.9375 4.664062 0.421875 3.015625 C 0.5625 2.867188 0.742188 2.777344 0.953125 2.75 C 5.640625 2.730469 10.328125 2.730469 15.015625 2.75 C 15.527344 2.863281 15.851562 3.167969 15.984375 3.671875 Z M 15.984375 3.671875 "/>
</g>
<mask id="mask1">
  <g filter="url(#alpha)">
<rect x="0" y="0" width="16" height="16" style="fill:rgb(0%,0%,0%);fill-opacity:0.996078;stroke:none;"/>
  </g>
</mask>
<clipPath id="clip2">
  <rect x="0" y="0" width="16" height="16"/>
</clipPath>
<g id="surface8" clip-path="url(#clip2)">
<path style=" stroke:none;fill-rule:evenodd;fill:rgb(44.705882%,44.705882%,44.705882%);fill-opacity:1;" d="M 7.953125 7.984375 C 10.628906 7.984375 13.308594 7.984375 15.984375 7.984375 C 15.984375 9.421875 15.984375 10.859375 15.984375 12.296875 C 15.851562 12.796875 15.527344 13.105469 15.015625 13.21875 C 10.328125 13.238281 5.640625 13.238281 0.953125 13.21875 C 0.742188 13.191406 0.5625 13.101562 0.421875 12.953125 C 2.9375 11.304688 5.449219 9.648438 7.953125 7.984375 Z M 7.953125 7.984375 "/>
</g>
</defs>
<g id="surface1">
<use xlink:href="#surface5" mask="url(#mask0)"/>
<path style=" stroke:none;fill-rule:evenodd;fill:rgb(95.686275%,95.686275%,95.686275%);fill-opacity:1;" d="M 0.421875 3.015625 C 2.9375 4.664062 5.449219 6.320312 7.953125 7.984375 C 5.449219 9.648438 2.9375 11.304688 0.421875 12.953125 C 0.320312 12.910156 0.242188 12.835938 0.1875 12.734375 C 0.105469 12.59375 0.0351562 12.445312 -0.015625 12.296875 C -0.015625 9.421875 -0.015625 6.546875 -0.015625 3.671875 C 0.0429688 3.464844 0.140625 3.277344 0.28125 3.109375 C 0.316406 3.058594 0.363281 3.027344 0.421875 3.015625 Z M 0.421875 3.015625 "/>
<path style=" stroke:none;fill-rule:evenodd;fill:rgb(87.058824%,87.058824%,87.058824%);fill-opacity:1;" d="M 0.734375 4.046875 C 0.847656 4.125 0.957031 4.207031 1.0625 4.296875 C 1.175781 4.234375 1.296875 4.191406 1.421875 4.171875 C 1.390625 4.300781 1.339844 4.421875 1.265625 4.53125 C 1.382812 4.621094 1.464844 4.730469 1.515625 4.859375 C 1.378906 4.851562 1.242188 4.847656 1.109375 4.84375 C 1.058594 4.953125 0.996094 5.050781 0.921875 5.140625 C 0.902344 5.132812 0.886719 5.125 0.875 5.109375 C 0.855469 4.988281 0.828125 4.867188 0.796875 4.75 C 0.671875 4.734375 0.554688 4.710938 0.4375 4.671875 C 0.414062 4.644531 0.421875 4.625 0.453125 4.609375 C 0.554688 4.5625 0.652344 4.507812 0.75 4.453125 C 0.753906 4.316406 0.746094 4.183594 0.734375 4.046875 Z M 0.734375 4.046875 "/>
<path style=" stroke:none;fill-rule:evenodd;fill:rgb(87.058824%,87.058824%,87.058824%);fill-opacity:1;" d="M 2.859375 6.203125 C 2.984375 6.324219 3.09375 6.460938 3.1875 6.609375 C 3.167969 6.785156 3.140625 6.960938 3.109375 7.140625 C 3.195312 7.160156 3.277344 7.175781 3.359375 7.1875 C 3.4375 7.039062 3.53125 6.90625 3.640625 6.78125 C 3.808594 6.761719 3.972656 6.746094 4.140625 6.734375 C 4.117188 6.910156 4.09375 7.089844 4.0625 7.265625 C 3.9375 7.347656 3.8125 7.433594 3.6875 7.515625 C 3.691406 7.597656 3.707031 7.683594 3.734375 7.765625 C 3.890625 7.730469 4.046875 7.6875 4.203125 7.640625 C 4.363281 7.742188 4.507812 7.855469 4.640625 7.984375 C 4.507812 8.113281 4.363281 8.226562 4.203125 8.328125 C 4.046875 8.28125 3.890625 8.238281 3.734375 8.203125 C 3.707031 8.285156 3.691406 8.371094 3.6875 8.453125 C 3.8125 8.535156 3.9375 8.621094 4.0625 8.703125 C 4.105469 8.878906 4.128906 9.054688 4.140625 9.234375 C 3.972656 9.222656 3.808594 9.207031 3.640625 9.1875 C 3.53125 9.0625 3.4375 8.929688 3.359375 8.78125 C 3.28125 8.804688 3.199219 8.820312 3.109375 8.828125 C 3.125 8.988281 3.15625 9.144531 3.203125 9.296875 C 3.125 9.472656 3.015625 9.628906 2.875 9.765625 C 2.777344 9.625 2.675781 9.488281 2.5625 9.359375 C 2.566406 9.210938 2.59375 9.066406 2.640625 8.921875 C 2.617188 8.847656 2.566406 8.800781 2.484375 8.78125 C 2.449219 8.757812 2.417969 8.761719 2.390625 8.796875 C 2.320312 8.917969 2.25 9.039062 2.171875 9.15625 C 1.996094 9.199219 1.820312 9.222656 1.640625 9.234375 C 1.644531 9.054688 1.660156 8.878906 1.6875 8.703125 C 1.832031 8.617188 1.972656 8.53125 2.109375 8.4375 C 2.070312 8.355469 2.027344 8.277344 1.984375 8.203125 C 1.824219 8.269531 1.65625 8.296875 1.484375 8.28125 C 1.351562 8.191406 1.226562 8.089844 1.109375 7.984375 C 1.226562 7.878906 1.351562 7.777344 1.484375 7.6875 C 1.65625 7.671875 1.824219 7.699219 1.984375 7.765625 C 2.027344 7.691406 2.070312 7.613281 2.109375 7.53125 C 1.972656 7.4375 1.832031 7.351562 1.6875 7.265625 C 1.667969 7.085938 1.640625 6.910156 1.609375 6.734375 C 1.800781 6.742188 1.988281 6.765625 2.171875 6.8125 C 2.25 6.929688 2.320312 7.050781 2.390625 7.171875 C 2.417969 7.207031 2.449219 7.210938 2.484375 7.1875 C 2.519531 7.15625 2.5625 7.132812 2.609375 7.125 C 2.625 7.101562 2.636719 7.078125 2.640625 7.046875 C 2.59375 6.902344 2.566406 6.757812 2.5625 6.609375 C 2.675781 6.484375 2.777344 6.347656 2.859375 6.203125 Z M 2.859375 6.203125 "/>
<path style=" stroke:none;fill-rule:evenodd;fill:rgb(87.058824%,87.058824%,87.058824%);fill-opacity:1;" d="M 6.328125 7.453125 C 6.359375 7.449219 6.386719 7.460938 6.40625 7.484375 C 6.410156 7.609375 6.425781 7.734375 6.453125 7.859375 C 6.90625 7.96875 6.898438 8.0625 6.421875 8.140625 C 6.421875 8.277344 6.421875 8.410156 6.421875 8.546875 C 6.390625 8.550781 6.359375 8.546875 6.328125 8.53125 C 6.261719 8.4375 6.1875 8.347656 6.109375 8.265625 C 5.699219 8.4375 5.636719 8.359375 5.921875 8.03125 C 5.839844 7.921875 5.777344 7.800781 5.734375 7.671875 C 5.867188 7.710938 6.003906 7.726562 6.140625 7.71875 C 6.210938 7.632812 6.273438 7.546875 6.328125 7.453125 Z M 6.328125 7.453125 "/>
<use xlink:href="#surface8" mask="url(#mask1)"/>
<path style=" stroke:none;fill-rule:evenodd;fill:rgb(87.058824%,87.058824%,87.058824%);fill-opacity:1;" d="M 0.859375 10.859375 C 0.894531 10.851562 0.925781 10.863281 0.953125 10.890625 C 1.007812 10.976562 1.0625 11.066406 1.109375 11.15625 C 1.246094 11.144531 1.382812 11.148438 1.515625 11.171875 C 1.421875 11.265625 1.335938 11.371094 1.265625 11.484375 C 1.332031 11.59375 1.378906 11.710938 1.40625 11.828125 C 1.394531 11.84375 1.378906 11.851562 1.359375 11.859375 C 1.265625 11.789062 1.160156 11.738281 1.046875 11.703125 C 0.933594 11.769531 0.835938 11.851562 0.75 11.953125 C 0.71875 11.917969 0.703125 11.878906 0.703125 11.828125 C 0.734375 11.722656 0.734375 11.617188 0.703125 11.515625 C 0.621094 11.472656 0.535156 11.433594 0.453125 11.390625 C 0.425781 11.363281 0.414062 11.332031 0.421875 11.296875 C 0.546875 11.277344 0.671875 11.253906 0.796875 11.234375 C 0.816406 11.109375 0.839844 10.984375 0.859375 10.859375 Z M 0.859375 10.859375 "/>
</g>
</svg>
